<svg width="50" height="40" viewBox="0 0 50 40" fill="none" xmlns="http://www.w3.org/2000/svg">
<g clip-path="url(#clip0_3244_40035)">
<g style="mix-blend-mode:multiply" opacity="0.29">
<path d="M35.3868 13.1978L25.6544 22.9302C25.5328 23.0519 25.3884 23.1483 25.2295 23.2142C25.0706 23.28 24.9003 23.3139 24.7283 23.3139C24.5563 23.3139 24.386 23.28 24.2271 23.2142C24.0682 23.1483 23.9238 23.0519 23.8022 22.9302L14.0698 13.1978C13.9482 13.0762 13.8517 12.9318 13.7859 12.7729C13.72 12.614 13.6862 12.4437 13.6862 12.2717C13.6862 12.0997 13.72 11.9294 13.7859 11.7705C13.8517 11.6116 13.9482 11.4672 14.0698 11.3456L23.8022 1.61321C23.9238 1.49158 24.0682 1.39509 24.2271 1.32926C24.386 1.26344 24.5563 1.22955 24.7283 1.22955C24.9003 1.22955 25.0706 1.26344 25.2295 1.32926C25.3884 1.39509 25.5328 1.49158 25.6544 1.61321L35.3868 11.3456C35.5085 11.4672 35.6049 11.6116 35.6708 11.7705C35.7366 11.9294 35.7705 12.0997 35.7705 12.2717C35.7705 12.4437 35.7366 12.614 35.6708 12.7729C35.6049 12.9318 35.5085 13.0762 35.3868 13.1978Z" fill="black"/>
</g>
<path d="M35.3868 12.9938L25.6544 22.7262C25.5328 22.8479 25.3884 22.9443 25.2295 23.0102C25.0706 23.076 24.9003 23.1099 24.7283 23.1099C24.5563 23.1099 24.386 23.076 24.2271 23.0102C24.0682 22.9443 23.9238 22.8479 23.8022 22.7262L14.0698 12.9938C13.9482 12.8722 13.8517 12.7278 13.7859 12.5689C13.72 12.41 13.6862 12.2397 13.6862 12.0677C13.6862 11.8957 13.72 11.7254 13.7859 11.5665C13.8517 11.4076 13.9482 11.2632 14.0698 11.1416L23.8022 1.4092C23.9238 1.28757 24.0682 1.19108 24.2271 1.12525C24.386 1.05943 24.5563 1.02554 24.7283 1.02554C24.9003 1.02554 25.0706 1.05943 25.2295 1.12525C25.3884 1.19108 25.5328 1.28757 25.6544 1.4092L35.3868 11.1416C35.5085 11.2632 35.6049 11.4076 35.6708 11.5665C35.7366 11.7254 35.7705 11.8957 35.7705 12.0677C35.7705 12.2397 35.7366 12.41 35.6708 12.5689C35.6049 12.7278 35.5085 12.8722 35.3868 12.9938Z" fill="url(#paint0_linear_3244_40035)"/>
<g style="mix-blend-mode:multiply" opacity="0.29">
<path d="M22.2009 26.3858L12.4685 36.1162C12.2225 36.3619 11.889 36.5 11.5413 36.5C11.1936 36.5 10.8601 36.3619 10.6142 36.1162L0.883831 26.3858C0.638058 26.1399 0.5 25.8064 0.5 25.4587C0.5 25.111 0.638058 24.7775 0.883831 24.5315L10.6142 14.7991C10.8601 14.5534 11.1936 14.4153 11.5413 14.4153C11.889 14.4153 12.2225 14.5534 12.4685 14.7991L22.2009 24.5377C22.4448 24.7834 22.5816 25.1155 22.5816 25.4617C22.5816 25.8079 22.4448 26.1401 22.2009 26.3858Z" fill="black"/>
</g>
<path d="M22.2009 26.1818L12.4685 35.9122C12.2225 36.158 11.889 36.296 11.5413 36.296C11.1936 36.296 10.8601 36.158 10.6142 35.9122L0.883831 26.1818C0.638058 25.9359 0.5 25.6024 0.5 25.2547C0.5 24.907 0.638058 24.5735 0.883831 24.3276L10.6142 14.5952C10.8601 14.3494 11.1936 14.2113 11.5413 14.2113C11.889 14.2113 12.2225 14.3494 12.4685 14.5952L22.2009 24.3337C22.4448 24.5794 22.5816 24.9115 22.5816 25.2578C22.5816 25.604 22.4448 25.9361 22.2009 26.1818Z" fill="url(#paint1_linear_3244_40035)"/>
<g style="mix-blend-mode:multiply" opacity="0.29">
<path d="M48.5728 26.3858L38.8424 36.1162C38.5965 36.3619 38.263 36.5 37.9153 36.5C37.5676 36.5 37.2341 36.3619 36.9882 36.1162L27.2558 26.3858C27.01 26.1399 26.8719 25.8064 26.8719 25.4587C26.8719 25.111 27.01 24.7775 27.2558 24.5315L36.9882 14.7991C37.2341 14.5534 37.5676 14.4153 37.9153 14.4153C38.263 14.4153 38.5965 14.5534 38.8424 14.7991L48.5728 24.5377C48.8167 24.7834 48.9536 25.1155 48.9536 25.4617C48.9536 25.8079 48.8167 26.1401 48.5728 26.3858Z" fill="black"/>
</g>
<path d="M48.5728 26.1818L38.8424 35.9122C38.5965 36.158 38.263 36.296 37.9153 36.296C37.5676 36.296 37.2341 36.158 36.9882 35.9122L27.2558 26.1818C27.01 25.9359 26.8719 25.6024 26.8719 25.2547C26.8719 24.907 27.01 24.5735 27.2558 24.3276L36.9882 14.5952C37.2341 14.3494 37.5676 14.2113 37.9153 14.2113C38.263 14.2113 38.5965 14.3494 38.8424 14.5952L48.5728 24.3337C48.8167 24.5794 48.9536 24.9115 48.9536 25.2578C48.9536 25.604 48.8167 25.9361 48.5728 26.1818Z" fill="url(#paint2_linear_3244_40035)"/>
<path d="M42.2083 21.4778V19.5073C42.2083 19.3336 42.1393 19.167 42.0165 19.0442C41.8937 18.9214 41.7271 18.8524 41.5535 18.8524H34.2771C34.1035 18.8524 33.9369 18.9214 33.8141 19.0442C33.6913 19.167 33.6223 19.3336 33.6223 19.5073V21.4778C33.622 21.5639 33.6388 21.6491 33.6716 21.7287C33.7044 21.8083 33.7526 21.8806 33.8135 21.9414C33.8744 22.0023 33.9467 22.0505 34.0262 22.0833C34.1058 22.1161 34.1911 22.1329 34.2771 22.1326H36.2232V30.8328C36.1167 30.8952 36.0288 30.9847 35.9682 31.0923C35.9076 31.1998 35.8767 31.3214 35.8785 31.4448C35.8785 31.632 35.9528 31.8115 36.0852 31.9439C36.2175 32.0762 36.3971 32.1506 36.5843 32.1506C36.7715 32.1506 36.951 32.0762 37.0833 31.9439C37.2157 31.8115 37.2901 31.632 37.2901 31.4448C37.2896 31.3211 37.257 31.1997 37.1955 31.0924C37.134 30.9852 37.0457 30.8957 36.9392 30.8328V26.035H37.6511V33.1481C37.5145 33.2246 37.407 33.3443 37.3457 33.4884C37.2843 33.6325 37.2724 33.7929 37.312 33.9444C37.3515 34.096 37.4402 34.2301 37.5641 34.3259C37.6881 34.4217 37.8403 34.4736 37.9969 34.4736C38.1535 34.4736 38.3057 34.4217 38.4297 34.3259C38.5536 34.2301 38.6423 34.096 38.6818 33.9444C38.7214 33.7929 38.7095 33.6325 38.6481 33.4884C38.5868 33.3443 38.4793 33.2246 38.3427 33.1481V27.0447H39.0546V29.6966C38.9052 29.7607 38.7827 29.8746 38.7077 30.0188C38.6328 30.1631 38.6101 30.3288 38.6435 30.4879C38.6769 30.647 38.7643 30.7896 38.891 30.8915C39.0176 30.9934 39.1756 31.0484 39.3381 31.047C39.4306 31.0473 39.5223 31.0293 39.6078 30.994C39.6933 30.9587 39.771 30.9069 39.8364 30.8415C39.9018 30.7761 39.9536 30.6984 39.9889 30.6129C40.0242 30.5274 40.0422 30.4357 40.0419 30.3432C40.0419 30.205 40.0015 30.0699 39.9258 29.9543C39.8501 29.8387 39.7422 29.7477 39.6156 29.6925V22.1306H41.5535C41.7268 22.1306 41.893 22.0619 42.0158 21.9395C42.1385 21.8171 42.2077 21.6511 42.2083 21.4778ZM37.0086 31.4387C37.0126 31.4978 37.0045 31.5572 36.9847 31.6131C36.9648 31.6689 36.9337 31.7201 36.8932 31.7635C36.8528 31.8068 36.8038 31.8414 36.7495 31.865C36.6951 31.8886 36.6364 31.9008 36.5771 31.9008C36.5178 31.9008 36.4592 31.8886 36.4048 31.865C36.3504 31.8414 36.3015 31.8068 36.261 31.7635C36.2205 31.7201 36.1894 31.6689 36.1696 31.6131C36.1497 31.5572 36.1416 31.4978 36.1457 31.4387C36.1444 31.3543 36.1694 31.2716 36.2171 31.202C36.2552 31.1404 36.3083 31.0894 36.3714 31.0537C36.4345 31.018 36.5056 30.9989 36.5781 30.998C36.6925 30.9986 36.802 31.0444 36.8826 31.1254C36.9633 31.2065 37.0086 31.3162 37.0086 31.4305V31.4387ZM38.4243 33.7621C38.4283 33.8215 38.4202 33.8812 38.4002 33.9373C38.3803 33.9934 38.349 34.0449 38.3084 34.0884C38.2677 34.1319 38.2185 34.1667 38.1639 34.1904C38.1093 34.2141 38.0503 34.2264 37.9908 34.2264C37.9312 34.2264 37.8723 34.2141 37.8176 34.1904C37.763 34.1667 37.7138 34.1319 37.6732 34.0884C37.6325 34.0449 37.6013 33.9934 37.5813 33.9373C37.5614 33.8812 37.5532 33.8215 37.5573 33.7621C37.5568 33.6696 37.5877 33.5797 37.645 33.5071C37.6848 33.4528 37.7368 33.4085 37.7969 33.378C37.857 33.3475 37.9234 33.3316 37.9908 33.3316C38.0581 33.3316 38.1246 33.3475 38.1847 33.378C38.2447 33.4085 38.2968 33.4528 38.3365 33.5071C38.3929 33.5803 38.4237 33.6698 38.4243 33.7621ZM39.7604 30.3453C39.7645 30.4044 39.7563 30.4638 39.7365 30.5197C39.7166 30.5755 39.6855 30.6267 39.6451 30.6701C39.6046 30.7134 39.5557 30.748 39.5013 30.7716C39.4469 30.7952 39.3882 30.8074 39.329 30.8074C39.2697 30.8074 39.211 30.7952 39.1566 30.7716C39.1022 30.748 39.0533 30.7134 39.0128 30.6701C38.9724 30.6267 38.9413 30.5755 38.9214 30.5197C38.9016 30.4638 38.8934 30.4044 38.8975 30.3453C38.8972 30.2831 38.9106 30.2217 38.9367 30.1653C38.9628 30.1089 39.0009 30.0589 39.0485 30.0189C39.1242 29.9472 39.2246 29.9072 39.329 29.9072C39.4333 29.9072 39.5337 29.9472 39.6094 30.0189C39.657 30.0589 39.6951 30.1089 39.7212 30.1653C39.7473 30.2217 39.7607 30.2831 39.7604 30.3453Z" fill="white"/>
<path d="M26.4316 4.43031L25.1771 3.17577C25.1183 3.11656 25.0484 3.06957 24.9714 3.0375C24.8944 3.00543 24.8118 2.98892 24.7283 2.98892C24.6449 2.98892 24.5623 3.00543 24.4853 3.0375C24.4082 3.06957 24.3383 3.11656 24.2795 3.17577L23.025 4.43031C22.9064 4.54957 22.8398 4.71091 22.8398 4.87909C22.8398 5.04727 22.9064 5.20862 23.025 5.32787L24.2795 6.58649C24.3988 6.70508 24.5601 6.77165 24.7283 6.77165C24.8965 6.77165 25.0578 6.70508 25.1771 6.58649L26.4316 5.33195C26.491 5.27282 26.5381 5.20256 26.5702 5.1252C26.6023 5.04784 26.6188 4.9649 26.6188 4.88113C26.6188 4.79737 26.6023 4.71442 26.5702 4.63706C26.5381 4.5597 26.491 4.48944 26.4316 4.43031Z" fill="white"/>
<path d="M26.5296 15.5621V8.19392C26.5296 8.01971 26.4604 7.85264 26.3372 7.72946C26.214 7.60627 26.047 7.53707 25.8728 7.53707H23.5554C23.4686 7.53599 23.3824 7.55219 23.3019 7.58474C23.2213 7.61729 23.1481 7.66554 23.0864 7.72666C23.0247 7.78779 22.9758 7.86059 22.9425 7.94081C22.9092 8.02102 22.8922 8.10706 22.8925 8.19392V16.837C22.7243 16.9135 22.5871 17.0449 22.5033 17.2095C22.4195 17.3742 22.3941 17.5624 22.4312 17.7434C22.4682 17.9244 22.5657 18.0875 22.7075 18.2059C22.8493 18.3243 23.0271 18.3911 23.2118 18.3954C23.3965 18.3996 23.5771 18.3411 23.7242 18.2293C23.8713 18.1175 23.9761 17.9591 24.0215 17.78C24.0669 17.6009 24.0501 17.4117 23.974 17.2434C23.8978 17.075 23.7668 16.9375 23.6023 16.8533V11.5047H24.4183V19.5113C24.2595 19.5678 24.1221 19.672 24.0249 19.8097C23.9278 19.9474 23.8756 20.1118 23.8757 20.2804C23.8764 20.4246 23.9153 20.5661 23.9885 20.6904C24.0617 20.8147 24.1665 20.9174 24.2923 20.988C24.4181 21.0586 24.5604 21.0946 24.7046 21.0923C24.8488 21.09 24.9899 21.0495 25.1134 20.9749C25.2369 20.9004 25.3384 20.7944 25.4076 20.6679C25.4768 20.5413 25.5112 20.3986 25.5073 20.2544C25.5034 20.1102 25.4614 19.9697 25.3855 19.847C25.3096 19.7243 25.2025 19.624 25.0752 19.5562V12.7062H25.9013V15.5621C25.7258 15.6331 25.5804 15.7629 25.4901 15.9294C25.3998 16.0958 25.3702 16.2885 25.4064 16.4743C25.4425 16.6602 25.5422 16.8277 25.6884 16.9481C25.8345 17.0686 26.0179 17.1344 26.2073 17.1344C26.3967 17.1344 26.5801 17.0686 26.7263 16.9481C26.8724 16.8277 26.9721 16.6602 27.0082 16.4743C27.0444 16.2885 27.0148 16.0958 26.9245 15.9294C26.8342 15.7629 26.6888 15.6331 26.5133 15.5621H26.5296ZM23.7411 17.5897C23.7416 17.6733 23.7212 17.7557 23.6818 17.8295C23.6424 17.9032 23.5852 17.9659 23.5153 18.0119C23.4455 18.0579 23.3653 18.0857 23.282 18.0929C23.1987 18.1 23.115 18.0862 23.0383 18.0527C22.9617 18.0192 22.8947 17.9672 22.8433 17.9012C22.792 17.8352 22.7579 17.7575 22.7442 17.675C22.7305 17.5925 22.7377 17.5079 22.765 17.4289C22.7923 17.3499 22.8389 17.279 22.9006 17.2225C22.992 17.1358 23.1132 17.0875 23.2392 17.0879C23.3722 17.0884 23.4995 17.1415 23.5935 17.2355C23.6875 17.3295 23.7405 17.4568 23.7411 17.5897ZM25.2179 20.2865C25.218 20.3737 25.1955 20.4594 25.1525 20.5352C25.1095 20.6111 25.0476 20.6745 24.9727 20.7193C24.8979 20.764 24.8127 20.7886 24.7256 20.7906C24.6384 20.7926 24.5522 20.7719 24.4754 20.7306C24.3986 20.6893 24.3339 20.6288 24.2875 20.555C24.2411 20.4811 24.2146 20.3965 24.2107 20.3094C24.2068 20.2223 24.2256 20.1357 24.2652 20.058C24.3048 19.9803 24.3639 19.9143 24.4367 19.8663C24.52 19.8126 24.617 19.7842 24.7161 19.7847C24.7879 19.7844 24.8588 19.7998 24.9239 19.8297C24.9891 19.8597 25.047 19.9035 25.0935 19.9581C25.1717 20.0475 25.2158 20.1616 25.2179 20.2804V20.2865ZM26.2175 16.8186C26.1516 16.8186 26.0863 16.8057 26.0255 16.7804C25.9646 16.7552 25.9093 16.7183 25.8627 16.6717C25.8161 16.6251 25.7791 16.5697 25.7539 16.5089C25.7287 16.448 25.7157 16.3827 25.7157 16.3168C25.7178 16.1844 25.7713 16.058 25.865 15.9643C25.9586 15.8707 26.0851 15.8171 26.2175 15.815C26.3504 15.8155 26.4778 15.8686 26.5717 15.9626C26.6657 16.0566 26.7188 16.1839 26.7193 16.3168C26.7188 16.4496 26.6657 16.5767 26.5716 16.6703C26.4776 16.764 26.3502 16.8166 26.2175 16.8166V16.8186Z" fill="white"/>
<path d="M13.5741 20.0499V24.4112C13.5736 24.4443 13.5626 24.4765 13.5426 24.503C13.5227 24.5295 13.4949 24.549 13.4632 24.5588C13.4315 24.5685 13.3975 24.568 13.3661 24.5572C13.3348 24.5464 13.3076 24.526 13.2885 24.4989L9.9329 19.5644C9.8971 19.5107 9.84854 19.4668 9.79157 19.4365C9.73461 19.4062 9.67102 19.3906 9.60651 19.391H7.59312C7.50654 19.3904 7.42071 19.4071 7.34064 19.4401C7.26057 19.473 7.18785 19.5215 7.12672 19.5829C7.06559 19.6442 7.01727 19.7171 6.98458 19.7972C6.95188 19.8774 6.93546 19.9633 6.93627 20.0499V29.1132C6.83697 29.1602 6.75304 29.2344 6.69419 29.3272C6.63534 29.42 6.60399 29.5275 6.60377 29.6374C6.60316 29.7413 6.63 29.8435 6.68159 29.9337C6.73318 30.0238 6.80767 30.0988 6.89754 30.1509C6.9874 30.203 7.08944 30.2304 7.19332 30.2304C7.2972 30.2304 7.39923 30.203 7.48909 30.1509C7.57895 30.0987 7.65344 30.0238 7.70502 29.9336C7.7566 29.8435 7.78344 29.7413 7.78281 29.6374C7.78219 29.5335 7.75414 29.4316 7.70148 29.3421C7.64883 29.2525 7.57344 29.1785 7.48297 29.1274V24.4948H8.06842V31.0348C7.95948 31.1042 7.87647 31.2077 7.83225 31.3291C7.78803 31.4504 7.78507 31.583 7.82381 31.7063C7.86255 31.8296 7.94085 31.9366 8.04657 32.0109C8.15229 32.0851 8.27955 32.1225 8.40864 32.1171C8.53773 32.1118 8.66145 32.064 8.76066 31.9812C8.85986 31.8984 8.92901 31.7853 8.9574 31.6592C8.98579 31.5332 8.97184 31.4013 8.91771 31.284C8.86358 31.1667 8.77228 31.0705 8.65796 31.0103V25.1619H9.23729V28.2401C9.1488 28.2912 9.07529 28.3646 9.02409 28.453C8.9729 28.5415 8.94583 28.6418 8.94558 28.7439C8.94086 28.8241 8.95258 28.9045 8.98002 28.98C9.00746 29.0555 9.05004 29.1246 9.10515 29.183C9.16026 29.2415 9.22674 29.2881 9.3005 29.3199C9.37427 29.3517 9.45376 29.3681 9.5341 29.3681C9.61443 29.3681 9.69392 29.3517 9.76769 29.3199C9.84145 29.2881 9.90793 29.2415 9.96304 29.183C10.0182 29.1246 10.0607 29.0555 10.0882 28.98C10.1156 28.9045 10.1273 28.8241 10.1226 28.7439C10.1226 28.6427 10.0963 28.5432 10.0462 28.4552C9.99617 28.3672 9.92407 28.2938 9.83702 28.2421V24.3969C9.83681 24.3636 9.84731 24.3311 9.86698 24.3043C9.88664 24.2774 9.91443 24.2576 9.94623 24.2478C9.97803 24.238 10.0122 24.2386 10.0436 24.2497C10.0749 24.2607 10.102 24.2816 10.1206 24.3092L13.4579 29.205C13.494 29.2582 13.5427 29.3019 13.5996 29.3321C13.6564 29.3623 13.7198 29.3782 13.7842 29.3784H15.8241C15.9103 29.3784 15.9956 29.3613 16.0752 29.3283C16.1548 29.2953 16.2271 29.2469 16.2879 29.1858C16.3487 29.1248 16.3969 29.0524 16.4297 28.9727C16.4625 28.893 16.4792 28.8077 16.479 28.7215V20.0499C16.4792 19.9638 16.4625 19.8785 16.4297 19.799C16.3968 19.7194 16.3486 19.6471 16.2878 19.5862C16.2269 19.5254 16.1546 19.4772 16.075 19.4443C15.9955 19.4115 15.9102 19.3948 15.8241 19.3951H14.2289C14.1429 19.3948 14.0576 19.4115 13.978 19.4443C13.8985 19.4772 13.8262 19.5254 13.7653 19.5862C13.7045 19.6471 13.6562 19.7194 13.6234 19.799C13.5906 19.8785 13.5739 19.9638 13.5741 20.0499ZM7.55845 29.6374C7.56221 29.6878 7.55553 29.7384 7.53884 29.7861C7.52214 29.8338 7.49579 29.8775 7.46142 29.9146C7.42705 29.9516 7.3854 29.9811 7.3391 30.0013C7.29279 30.0215 7.24281 30.032 7.19228 30.032C7.14176 30.032 7.09178 30.0215 7.04547 30.0013C6.99916 29.9811 6.95752 29.9516 6.92315 29.9146C6.88878 29.8775 6.86242 29.8338 6.84573 29.7861C6.82903 29.7384 6.82236 29.6878 6.82612 29.6374C6.82615 29.5876 6.8365 29.5383 6.85651 29.4927C6.87652 29.447 6.90576 29.406 6.94239 29.3722C6.97506 29.3396 7.01388 29.3138 7.0566 29.2963C7.09932 29.2788 7.14509 29.2699 7.19126 29.2702C7.28815 29.2718 7.38064 29.311 7.44916 29.3795C7.51768 29.448 7.55687 29.5405 7.55845 29.6374ZM8.74975 31.5284C8.74975 31.6006 8.72834 31.6712 8.68821 31.7313C8.64809 31.7913 8.59106 31.8381 8.52434 31.8658C8.45762 31.8934 8.3842 31.9006 8.31337 31.8865C8.24254 31.8725 8.17748 31.8377 8.12641 31.7866C8.07535 31.7355 8.04057 31.6705 8.02648 31.5997C8.01239 31.5288 8.01962 31.4554 8.04726 31.3887C8.0749 31.322 8.1217 31.2649 8.18175 31.2248C8.24179 31.1847 8.31239 31.1633 8.38461 31.1633C8.43264 31.163 8.48024 31.1723 8.52466 31.1905C8.56908 31.2088 8.60945 31.2357 8.64341 31.2696C8.67737 31.3036 8.70425 31.3439 8.72251 31.3884C8.74076 31.4328 8.75002 31.4804 8.74975 31.5284ZM9.90026 28.7439C9.90026 28.8408 9.86179 28.9337 9.79331 29.0021C9.72483 29.0706 9.63196 29.1091 9.53511 29.1091C9.43827 29.1091 9.3454 29.0706 9.27692 29.0021C9.20844 28.9337 9.16997 28.8408 9.16997 28.7439C9.16965 28.6945 9.17965 28.6456 9.19932 28.6003C9.21899 28.555 9.2479 28.5143 9.28421 28.4808C9.35144 28.4155 9.44141 28.379 9.53511 28.3788C9.6313 28.3809 9.72298 28.42 9.79101 28.4881C9.85904 28.5561 9.89818 28.6478 9.90026 28.7439Z" fill="white"/>
<path d="M16.5 36.1021V33.9691H16.9692V36.1021H16.5Z" fill="white"/>
<path d="M17.3727 36.1021V34.5344H17.8249V34.6343C17.8612 34.6135 17.9054 34.5937 17.9575 34.575C18.0097 34.5541 18.0641 34.5364 18.1207 34.5219C18.1797 34.5073 18.2363 34.5 18.2908 34.5C18.4086 34.5 18.5061 34.5146 18.5832 34.5437C18.6625 34.5708 18.7249 34.6156 18.7702 34.678C18.8155 34.7405 18.8484 34.8227 18.8688 34.9247C18.8892 35.0247 18.8994 35.1465 18.8994 35.2901V36.1021H18.4438V35.312C18.4438 35.2037 18.437 35.1173 18.4234 35.0528C18.4098 34.9862 18.3837 34.9383 18.3452 34.9091C18.3066 34.88 18.2499 34.8654 18.1751 34.8654C18.1343 34.8654 18.0913 34.8696 18.0459 34.8779C18.0029 34.8841 17.9609 34.8935 17.9201 34.906C17.8816 34.9185 17.8498 34.931 17.8249 34.9435V36.1021H17.3727Z" fill="white"/>
<path d="M19.3201 36.1021V34.881H19.1501V34.5344H19.3201V34.4438C19.3201 34.296 19.3349 34.1794 19.3643 34.094C19.3961 34.0086 19.4493 33.9483 19.5241 33.9129C19.599 33.8775 19.6998 33.8598 19.8268 33.8598C19.863 33.8598 19.9061 33.8619 19.956 33.866C20.0081 33.8681 20.058 33.8712 20.1056 33.8754C20.1532 33.8796 20.1895 33.8837 20.2144 33.8879L20.211 34.2064C20.1747 34.2064 20.1339 34.2064 20.0886 34.2064C20.0455 34.2044 20.0081 34.2033 19.9764 34.2033C19.9265 34.2033 19.8857 34.2106 19.854 34.2252C19.8245 34.2397 19.803 34.2637 19.7894 34.297C19.778 34.3303 19.7724 34.3782 19.7724 34.4407V34.5344H20.1804V34.881H19.7724V36.1021H19.3201Z" fill="white"/>
<path d="M21.1255 36.1365C20.9329 36.1365 20.7776 36.1073 20.6597 36.049C20.5441 35.9907 20.4602 35.9012 20.4081 35.7804C20.3559 35.6576 20.3299 35.4994 20.3299 35.3057C20.3299 35.1184 20.3571 34.9664 20.4115 34.8498C20.4659 34.7311 20.552 34.6437 20.6699 34.5874C20.7878 34.5291 20.9397 34.5 21.1255 34.5C21.3137 34.5 21.4656 34.5291 21.5812 34.5874C21.6991 34.6437 21.7852 34.7311 21.8396 34.8498C21.8963 34.9664 21.9246 35.1184 21.9246 35.3057C21.9246 35.4994 21.8985 35.6576 21.8464 35.7804C21.7943 35.9012 21.7093 35.9907 21.5914 36.049C21.4758 36.1073 21.3205 36.1365 21.1255 36.1365ZM21.1255 35.7929C21.2208 35.7929 21.2922 35.7773 21.3398 35.7461C21.3874 35.7128 21.4191 35.6607 21.435 35.5899C21.4531 35.5171 21.4622 35.4223 21.4622 35.3057C21.4622 35.1912 21.452 35.1007 21.4316 35.034C21.4112 34.9653 21.3772 34.9164 21.3296 34.8873C21.282 34.8581 21.214 34.8435 21.1255 34.8435C21.0394 34.8435 20.9714 34.8581 20.9215 34.8873C20.8739 34.9164 20.8399 34.9653 20.8195 35.034C20.7991 35.1007 20.7889 35.1912 20.7889 35.3057C20.7889 35.4223 20.7969 35.5171 20.8127 35.5899C20.8309 35.6607 20.8637 35.7128 20.9113 35.7461C20.9589 35.7773 21.0303 35.7929 21.1255 35.7929Z" fill="white"/>
<path d="M22.234 36.1021V34.5344H22.6862V34.7186C22.7248 34.6915 22.7724 34.6634 22.8291 34.6343C22.8857 34.6031 22.9469 34.575 23.0127 34.55C23.0807 34.5229 23.1453 34.5052 23.2065 34.4969V34.8997C23.1475 34.9081 23.0852 34.9227 23.0195 34.9435C22.9537 34.9622 22.8914 34.983 22.8325 35.0059C22.7758 35.0288 22.727 35.0497 22.6862 35.0684V36.1021H22.234Z" fill="white"/>
<path d="M23.4427 36.1021V34.5344H23.8949V34.6343C23.9289 34.6135 23.972 34.5937 24.0241 34.575C24.0763 34.5541 24.1307 34.5364 24.1874 34.5219C24.2463 34.5073 24.303 34.5 24.3574 34.5C24.4616 34.5 24.5467 34.5135 24.6124 34.5406C24.6781 34.5656 24.7325 34.6031 24.7756 34.653C24.8164 34.6301 24.8674 34.6072 24.9286 34.5843C24.9898 34.5614 25.0567 34.5416 25.1292 34.525C25.2018 34.5083 25.272 34.5 25.3401 34.5C25.4647 34.5 25.5667 34.5156 25.6461 34.5468C25.7277 34.576 25.7912 34.6228 25.8365 34.6874C25.8818 34.7498 25.9136 34.831 25.9317 34.931C25.9498 35.0288 25.9589 35.1475 25.9589 35.287V36.1021H25.5067V35.3245C25.5067 35.2162 25.4999 35.1288 25.4863 35.0621C25.4749 34.9934 25.45 34.9435 25.4115 34.9122C25.3752 34.881 25.3197 34.8654 25.2448 34.8654C25.204 34.8654 25.161 34.8696 25.1156 34.8779C25.0703 34.8841 25.0284 34.8935 24.9898 34.906C24.9536 34.9185 24.9241 34.9299 24.9014 34.9403C24.9128 34.9841 24.9207 35.0403 24.9252 35.109C24.932 35.1777 24.9354 35.2495 24.9354 35.3245V36.1021H24.4832V35.3307C24.4832 35.2204 24.4764 35.1309 24.4628 35.0621C24.4514 34.9934 24.4265 34.9435 24.388 34.9122C24.3494 34.881 24.2939 34.8654 24.2214 34.8654C24.1806 34.8654 24.1386 34.8696 24.0956 34.8779C24.0547 34.8841 24.0162 34.8935 23.9799 34.906C23.9459 34.9185 23.9176 34.9299 23.8949 34.9403V36.1021H23.4427Z" fill="white"/>
<path d="M26.7638 36.1365C26.5869 36.1365 26.4532 36.0959 26.3625 36.0147C26.2741 35.9314 26.2299 35.8065 26.2299 35.6399C26.2299 35.5233 26.2526 35.4327 26.2979 35.3682C26.3433 35.3016 26.4101 35.2537 26.4985 35.2245C26.5892 35.1933 26.6992 35.1746 26.8284 35.1683L27.2432 35.134V35.0403C27.2432 34.9653 27.2228 34.9133 27.182 34.8841C27.1412 34.8529 27.0811 34.8373 27.0018 34.8373C26.9383 34.8373 26.8646 34.8394 26.7808 34.8435C26.6992 34.8477 26.6175 34.8529 26.5359 34.8592C26.4566 34.8654 26.3875 34.8716 26.3285 34.8779L26.3149 34.5843C26.3739 34.5718 26.4441 34.5593 26.5257 34.5468C26.6096 34.5323 26.6969 34.5208 26.7876 34.5125C26.8782 34.5042 26.9621 34.5 27.0392 34.5C27.1843 34.5 27.3055 34.5167 27.403 34.55C27.5005 34.5833 27.5742 34.6385 27.624 34.7155C27.6739 34.7904 27.6988 34.8925 27.6988 35.0215V35.7367C27.7034 35.7659 27.7204 35.7888 27.7498 35.8054C27.7793 35.82 27.8133 35.8304 27.8518 35.8367L27.8416 36.124C27.8054 36.124 27.7691 36.124 27.7328 36.124C27.6988 36.1261 27.666 36.1261 27.6342 36.124C27.6025 36.124 27.5742 36.1219 27.5492 36.1177C27.4971 36.1115 27.4517 36.099 27.4132 36.0803C27.3769 36.0615 27.3475 36.0417 27.3248 36.0209C27.2885 36.0355 27.2398 36.0522 27.1786 36.0709C27.1174 36.0896 27.0505 36.1052 26.978 36.1177C26.9077 36.1302 26.8363 36.1365 26.7638 36.1365ZM26.8726 35.8273C26.9156 35.8273 26.961 35.8231 27.0086 35.8148C27.0562 35.8065 27.1004 35.7971 27.1412 35.7867C27.1843 35.7742 27.2183 35.7628 27.2432 35.7523V35.3932L26.8964 35.4213C26.8216 35.4275 26.7672 35.4484 26.7332 35.4838C26.7014 35.5171 26.6856 35.565 26.6856 35.6274C26.6856 35.6899 26.7003 35.7388 26.7298 35.7742C26.7615 35.8096 26.8091 35.8273 26.8726 35.8273Z" fill="white"/>
<path d="M28.6767 36.1396C28.552 36.1396 28.4511 36.1229 28.3741 36.0896C28.297 36.0563 28.2414 35.9991 28.2074 35.9179C28.1757 35.8346 28.1598 35.719 28.1598 35.5712V34.881H27.9592V34.5344H28.1598V34.119H28.6121V34.5344H29.0473V34.881H28.6121V35.4619C28.6121 35.5431 28.6155 35.6066 28.6223 35.6524C28.6313 35.6982 28.6495 35.7305 28.6767 35.7492C28.7039 35.768 28.7458 35.7773 28.8025 35.7773C28.8184 35.7773 28.8422 35.7763 28.8739 35.7742C28.9056 35.7721 28.9374 35.77 28.9691 35.768C29.0008 35.7659 29.0269 35.7638 29.0473 35.7617L29.0609 36.0959C29.0269 36.1021 28.985 36.1084 28.9351 36.1146C28.8875 36.1209 28.8399 36.1261 28.7923 36.1302C28.747 36.1365 28.7084 36.1396 28.6767 36.1396Z" fill="white"/>
<path d="M29.3002 36.1021V34.5344H29.7524V36.1021H29.3002ZM29.3002 34.2845V33.9285H29.7558V34.2845H29.3002Z" fill="white"/>
<path d="M30.8648 36.1365C30.6721 36.1365 30.5169 36.1073 30.399 36.049C30.2834 35.9907 30.1995 35.9012 30.1474 35.7804C30.0952 35.6576 30.0691 35.4994 30.0691 35.3057C30.0691 35.1184 30.0963 34.9664 30.1508 34.8498C30.2052 34.7311 30.2913 34.6437 30.4092 34.5874C30.5271 34.5291 30.6789 34.5 30.8648 34.5C31.053 34.5 31.2048 34.5291 31.3204 34.5874C31.4383 34.6437 31.5245 34.7311 31.5789 34.8498C31.6355 34.9664 31.6639 35.1184 31.6639 35.3057C31.6639 35.4994 31.6378 35.6576 31.5857 35.7804C31.5335 35.9012 31.4485 35.9907 31.3307 36.049C31.215 36.1073 31.0598 36.1365 30.8648 36.1365ZM30.8648 35.7929C30.96 35.7929 31.0314 35.7773 31.079 35.7461C31.1266 35.7128 31.1584 35.6607 31.1742 35.5899C31.1924 35.5171 31.2014 35.4223 31.2014 35.3057C31.2014 35.1912 31.1912 35.1007 31.1708 35.034C31.1504 34.9653 31.1164 34.9164 31.0688 34.8873C31.0212 34.8581 30.9532 34.8435 30.8648 34.8435C30.7787 34.8435 30.7107 34.8581 30.6608 34.8873C30.6132 34.9164 30.5792 34.9653 30.5588 35.034C30.5384 35.1007 30.5282 35.1912 30.5282 35.3057C30.5282 35.4223 30.5361 35.5171 30.552 35.5899C30.5701 35.6607 30.603 35.7128 30.6506 35.7461C30.6982 35.7773 30.7696 35.7929 30.8648 35.7929Z" fill="white"/>
<path d="M31.9733 36.1021V34.5344H32.4255V34.6343C32.4618 34.6135 32.506 34.5937 32.5581 34.575C32.6103 34.5541 32.6647 34.5364 32.7213 34.5219C32.7803 34.5073 32.8369 34.5 32.8913 34.5C33.0092 34.5 33.1067 34.5146 33.1838 34.5437C33.2631 34.5708 33.3255 34.6156 33.3708 34.678C33.4161 34.7405 33.449 34.8227 33.4694 34.9247C33.4898 35.0247 33.5 35.1465 33.5 35.2901V36.1021H33.0444V35.312C33.0444 35.2037 33.0376 35.1173 33.024 35.0528C33.0104 34.9862 32.9843 34.9383 32.9458 34.9091C32.9072 34.88 32.8505 34.8654 32.7757 34.8654C32.7349 34.8654 32.6919 34.8696 32.6465 34.8779C32.6035 34.8841 32.5615 34.8935 32.5207 34.906C32.4822 34.9185 32.4504 34.931 32.4255 34.9435V36.1021H31.9733Z" fill="white"/>
<path d="M18.9353 38.9129V37.3663H18.3613V37.1864H19.7214V37.3663H19.1529V38.9129H18.9353Z" fill="white"/>
<path d="M20.2571 38.9379C20.1211 38.9379 20.0132 38.9137 19.9334 38.8654C19.8554 38.8171 19.7992 38.7455 19.7648 38.6505C19.7303 38.5556 19.7131 38.4373 19.7131 38.2958C19.7131 38.1375 19.7367 38.0109 19.7838 37.916C19.831 37.8194 19.8972 37.7494 19.9824 37.7061C20.0676 37.6611 20.1683 37.6387 20.2843 37.6387C20.4657 37.6387 20.6026 37.6853 20.6951 37.7786C20.7876 37.8702 20.8338 38.0184 20.8338 38.2233L20.8229 38.3707H19.928C19.9298 38.5006 19.9561 38.5989 20.0069 38.6655C20.0577 38.7321 20.1492 38.7655 20.2816 38.7655C20.3324 38.7655 20.3877 38.7646 20.4476 38.763C20.5092 38.7596 20.57 38.7563 20.6298 38.753C20.6897 38.7496 20.7404 38.7463 20.7821 38.743L20.7876 38.8954C20.7441 38.902 20.6906 38.9087 20.6271 38.9154C20.5654 38.922 20.502 38.927 20.4367 38.9304C20.3714 38.9354 20.3115 38.9379 20.2571 38.9379ZM19.928 38.2133H20.6216C20.6216 38.0601 20.5944 37.9535 20.54 37.8935C20.4874 37.8319 20.4022 37.8011 20.2843 37.8011C20.2082 37.8011 20.1438 37.8152 20.0912 37.8435C20.0386 37.8702 19.9978 37.9135 19.9688 37.9735C19.9416 38.0334 19.928 38.1134 19.928 38.2133Z" fill="white"/>
<path d="M21.6523 38.9379C21.509 38.9379 21.3966 38.9162 21.315 38.8729C21.2334 38.8279 21.1753 38.7563 21.1409 38.658C21.1082 38.5598 21.0919 38.4298 21.0919 38.2683C21.0919 38.1167 21.1101 37.9951 21.1463 37.9035C21.1844 37.8102 21.2452 37.7428 21.3286 37.7011C21.412 37.6595 21.5208 37.6387 21.655 37.6387C21.6858 37.6387 21.723 37.6412 21.7665 37.6462C21.8119 37.6495 21.8581 37.6545 21.9053 37.6611C21.9524 37.6661 21.9932 37.6711 22.0277 37.6761L22.0195 37.836C21.9887 37.8327 21.9533 37.8294 21.9134 37.826C21.8735 37.8227 21.8345 37.8202 21.7965 37.8186C21.7584 37.8152 21.7266 37.8136 21.7013 37.8136C21.5979 37.8136 21.5172 37.8285 21.4592 37.8585C21.4029 37.8885 21.363 37.9368 21.3395 38.0034C21.3177 38.0684 21.3068 38.1567 21.3068 38.2683C21.3068 38.3899 21.3168 38.4873 21.3367 38.5606C21.3567 38.6322 21.3948 38.6838 21.451 38.7155C21.5072 38.7471 21.5906 38.763 21.7013 38.763C21.7266 38.763 21.7584 38.7621 21.7965 38.7605C21.8364 38.7571 21.8763 38.7538 21.9162 38.7505C21.9579 38.7471 21.9941 38.7446 22.025 38.743L22.0304 38.9029C21.9941 38.9079 21.9524 38.9129 21.9053 38.9179C21.8581 38.9229 21.8119 38.927 21.7665 38.9304C21.7212 38.9354 21.6831 38.9379 21.6523 38.9379Z" fill="white"/>
<path d="M22.3338 38.9129V37.1215H22.5433V37.7311C22.5759 37.7178 22.6149 37.7045 22.6603 37.6911C22.7074 37.6761 22.7573 37.6636 22.8099 37.6537C22.8625 37.6437 22.9123 37.6387 22.9595 37.6387C23.0538 37.6387 23.1309 37.6503 23.1907 37.6736C23.2505 37.6953 23.2968 37.7311 23.3294 37.7811C23.3639 37.8294 23.3875 37.8927 23.4002 37.971C23.4129 38.0476 23.4192 38.1408 23.4192 38.2508V38.9129H23.207V38.2583C23.207 38.15 23.1998 38.0634 23.1853 37.9984C23.1726 37.9335 23.1463 37.8868 23.1064 37.8585C23.0665 37.8285 23.0048 37.8136 22.9214 37.8136C22.8761 37.8136 22.8289 37.8177 22.7799 37.826C22.7328 37.8327 22.6884 37.8419 22.6467 37.8535C22.6049 37.8652 22.5705 37.876 22.5433 37.886V38.9129H22.3338Z" fill="white"/>
<path d="M23.7975 38.9129V37.6636H24.007V37.7511C24.0378 37.7344 24.0759 37.7178 24.1213 37.7011C24.1684 37.6845 24.2183 37.6703 24.2709 37.6587C24.3235 37.6453 24.3742 37.6387 24.4232 37.6387C24.5175 37.6387 24.5946 37.6503 24.6544 37.6736C24.7143 37.6953 24.7605 37.7311 24.7931 37.7811C24.8276 37.8294 24.8512 37.8927 24.8639 37.971C24.8784 38.0476 24.8856 38.1408 24.8856 38.2508V38.9129H24.6735V38.2583C24.6735 38.15 24.6662 38.0634 24.6517 37.9984C24.639 37.9335 24.6118 37.8868 24.5701 37.8585C24.5302 37.8285 24.4685 37.8136 24.3851 37.8136C24.3398 37.8136 24.2926 37.8186 24.2437 37.8285C24.1965 37.8369 24.1521 37.8485 24.1104 37.8635C24.0687 37.8768 24.0342 37.8902 24.007 37.9035V38.9129H23.7975Z" fill="white"/>
<path d="M25.7835 38.9379C25.6312 38.9379 25.5124 38.9137 25.4272 38.8654C25.3438 38.8171 25.2848 38.7438 25.2504 38.6455C25.2177 38.5473 25.2014 38.4232 25.2014 38.2733C25.2014 38.13 25.2195 38.0118 25.2558 37.9185C25.2939 37.8252 25.3556 37.7553 25.4408 37.7086C25.526 37.662 25.6403 37.6387 25.7835 37.6387C25.9286 37.6387 26.0438 37.662 26.129 37.7086C26.2142 37.7553 26.275 37.8252 26.3113 37.9185C26.3493 38.0118 26.3684 38.13 26.3684 38.2733C26.3684 38.4232 26.3512 38.5473 26.3167 38.6455C26.2841 38.7438 26.2251 38.8171 26.1399 38.8654C26.0565 38.9137 25.9377 38.9379 25.7835 38.9379ZM25.7835 38.7705C25.8887 38.7705 25.9676 38.7538 26.0202 38.7205C26.0728 38.6855 26.1072 38.6314 26.1236 38.5581C26.1417 38.4848 26.1508 38.3899 26.1508 38.2733C26.1508 38.1583 26.1399 38.0667 26.1181 37.9984C26.0964 37.9301 26.0592 37.881 26.0066 37.851C25.954 37.821 25.8797 37.8061 25.7835 37.8061C25.6892 37.8061 25.6149 37.821 25.5605 37.851C25.5079 37.881 25.4707 37.9301 25.449 37.9984C25.4272 38.0667 25.4163 38.1583 25.4163 38.2733C25.4163 38.3899 25.4245 38.4848 25.4408 38.5581C25.4589 38.6314 25.4943 38.6855 25.5469 38.7205C25.5995 38.7538 25.6784 38.7705 25.7835 38.7705Z" fill="white"/>
<path d="M26.7174 38.9129V37.1215H26.9268V38.9129H26.7174Z" fill="white"/>
<path d="M27.8582 38.9379C27.7059 38.9379 27.5871 38.9137 27.5019 38.8654C27.4185 38.8171 27.3595 38.7438 27.3251 38.6455C27.2924 38.5473 27.2761 38.4232 27.2761 38.2733C27.2761 38.13 27.2942 38.0118 27.3305 37.9185C27.3686 37.8252 27.4303 37.7553 27.5155 37.7086C27.6007 37.662 27.715 37.6387 27.8582 37.6387C28.0033 37.6387 28.1185 37.662 28.2037 37.7086C28.2889 37.7553 28.3497 37.8252 28.386 37.9185C28.424 38.0118 28.4431 38.13 28.4431 38.2733C28.4431 38.4232 28.4259 38.5473 28.3914 38.6455C28.3588 38.7438 28.2998 38.8171 28.2146 38.8654C28.1312 38.9137 28.0124 38.9379 27.8582 38.9379ZM27.8582 38.7705C27.9634 38.7705 28.0423 38.7538 28.0949 38.7205C28.1475 38.6855 28.1819 38.6314 28.1983 38.5581C28.2164 38.4848 28.2255 38.3899 28.2255 38.2733C28.2255 38.1583 28.2146 38.0667 28.1928 37.9984C28.1711 37.9301 28.1339 37.881 28.0813 37.851C28.0287 37.821 27.9544 37.8061 27.8582 37.8061C27.7639 37.8061 27.6896 37.821 27.6352 37.851C27.5826 37.881 27.5454 37.9301 27.5237 37.9984C27.5019 38.0667 27.491 38.1583 27.491 38.2733C27.491 38.3899 27.4992 38.4848 27.5155 38.5581C27.5336 38.6314 27.569 38.6855 27.6216 38.7205C27.6742 38.7538 27.7531 38.7705 27.8582 38.7705Z" fill="white"/>
<path d="M29.3008 39.5C29.1593 39.5 29.0451 39.4883 28.958 39.465C28.8728 39.4434 28.8102 39.4051 28.7703 39.3501C28.7322 39.2951 28.7132 39.2202 28.7132 39.1252C28.7132 39.0769 28.7214 39.0353 28.7377 39.0003C28.754 38.967 28.7776 38.9362 28.8084 38.9079C28.841 38.8779 28.8809 38.8471 28.9281 38.8154C28.9045 38.7988 28.8855 38.7755 28.871 38.7455C28.8583 38.7138 28.8519 38.6788 28.8519 38.6405C28.8519 38.6289 28.8565 38.6114 28.8655 38.5881C28.8764 38.5648 28.8891 38.5406 28.9036 38.5156C28.9181 38.489 28.9317 38.4648 28.9444 38.4432C28.9063 38.4265 28.871 38.404 28.8383 38.3757C28.8075 38.3457 28.7821 38.3057 28.7622 38.2558C28.7422 38.2058 28.7322 38.1425 28.7322 38.0659C28.7322 37.9626 28.7531 37.8802 28.7948 37.8186C28.8383 37.7553 28.8982 37.7095 28.9743 37.6811C29.0523 37.6528 29.1412 37.6387 29.2409 37.6387C29.2899 37.6387 29.3416 37.642 29.396 37.6487C29.4504 37.6553 29.493 37.6628 29.5238 37.6711L29.9291 37.6611V37.826L29.6734 37.821C29.6988 37.8444 29.7197 37.8752 29.736 37.9135C29.7541 37.9518 29.7632 38.0026 29.7632 38.0659C29.7632 38.1742 29.7433 38.2591 29.7034 38.3207C29.6635 38.3824 29.6045 38.4257 29.5265 38.4507C29.4486 38.4756 29.3506 38.4881 29.2328 38.4881C29.2201 38.4881 29.1983 38.4873 29.1675 38.4856C29.1385 38.4823 29.1167 38.4798 29.1022 38.4781C29.0913 38.5015 29.0804 38.5281 29.0695 38.5581C29.0587 38.5881 29.0532 38.6089 29.0532 38.6205C29.0532 38.6455 29.0559 38.6655 29.0614 38.6805C29.0686 38.6938 29.0822 38.7047 29.1022 38.713C29.124 38.7213 29.1566 38.7271 29.2001 38.7305C29.2436 38.7321 29.3035 38.733 29.3797 38.733C29.5102 38.733 29.6145 38.743 29.6925 38.763C29.7705 38.7829 29.8258 38.8196 29.8584 38.8729C29.8929 38.9245 29.9101 39.0003 29.9101 39.1002C29.9101 39.2418 29.8566 39.3434 29.7496 39.4051C29.6426 39.4684 29.493 39.5 29.3008 39.5ZM29.3035 39.3351C29.4377 39.3351 29.5365 39.3176 29.6 39.2826C29.6635 39.2477 29.6952 39.1902 29.6952 39.1102C29.6952 39.0486 29.6843 39.0028 29.6626 38.9728C29.6426 38.9445 29.6081 38.9254 29.5592 38.9154C29.5102 38.907 29.4449 38.9029 29.3633 38.9029C29.347 38.9029 29.3243 38.9029 29.2953 38.9029C29.2663 38.9012 29.2364 38.9004 29.2056 38.9004C29.1747 38.8987 29.1466 38.897 29.1212 38.8954C29.0977 38.8937 29.0813 38.8929 29.0723 38.8929C29.036 38.9179 29.0061 38.9403 28.9825 38.9603C28.9607 38.982 28.9453 39.0036 28.9363 39.0253C28.9272 39.0486 28.9227 39.0761 28.9227 39.1077C28.9227 39.1627 28.9335 39.2069 28.9553 39.2402C28.9771 39.2735 29.0151 39.2976 29.0695 39.3126C29.1258 39.3276 29.2037 39.3351 29.3035 39.3351ZM29.2409 38.3332C29.3534 38.3332 29.4331 38.3132 29.4803 38.2733C29.5275 38.2316 29.551 38.1625 29.551 38.0659C29.551 37.9693 29.5275 37.9002 29.4803 37.8585C29.4331 37.8169 29.3534 37.7961 29.2409 37.7961C29.1357 37.7961 29.0596 37.8169 29.0124 37.8585C28.9671 37.9002 28.9444 37.9693 28.9444 38.0659C28.9444 38.1625 28.9671 38.2316 29.0124 38.2733C29.0596 38.3132 29.1357 38.3332 29.2409 38.3332Z" fill="white"/>
<path d="M30.4586 39.465L30.6354 38.9129H30.4314L30.0479 37.6636H30.26L30.5919 38.7455H30.6844L31.019 37.6636H31.2312L30.6708 39.465H30.4586Z" fill="white"/>
<path d="M20.2546 33.2914V31.565H20.6599L21.3672 33.114H21.4216V31.565H21.6392V33.2914H21.242L20.5239 31.7423H20.4722V33.2914H20.2546Z" fill="white"/>
<path d="M22.3594 33.3164C22.2342 33.3164 22.139 33.2839 22.0738 33.2189C22.0085 33.154 21.9758 33.059 21.9758 32.9341C21.9758 32.8525 21.9912 32.7859 22.0221 32.7342C22.0529 32.6826 22.0991 32.6435 22.1608 32.6168C22.2243 32.5885 22.3023 32.571 22.3947 32.5643L22.8137 32.5269V32.4194C22.8137 32.3345 22.7928 32.2745 22.7511 32.2395C22.7112 32.2046 22.6513 32.1871 22.5716 32.1871C22.5262 32.1871 22.4718 32.1887 22.4083 32.1921C22.3467 32.1954 22.285 32.1996 22.2234 32.2046C22.1617 32.2096 22.1073 32.2146 22.0602 32.2196L22.0493 32.0721C22.0928 32.0638 22.1454 32.0555 22.207 32.0472C22.2687 32.0388 22.3331 32.0322 22.4002 32.0272C22.4673 32.0205 22.5289 32.0172 22.5852 32.0172C22.6885 32.0172 22.7729 32.0322 22.8381 32.0621C22.9034 32.0905 22.9506 32.1346 22.9796 32.1946C23.0104 32.2529 23.0258 32.3278 23.0258 32.4194V33.0515C23.0295 33.0882 23.0449 33.1148 23.0721 33.1315C23.1011 33.1481 23.1374 33.159 23.1809 33.164L23.1727 33.3164C23.1473 33.3164 23.1229 33.3155 23.0993 33.3139C23.0757 33.3122 23.053 33.3089 23.0313 33.3039C23.0113 33.3005 22.9914 33.2964 22.9714 33.2914C22.9479 33.2831 22.9252 33.2731 22.9034 33.2614C22.8835 33.2497 22.8635 33.2356 22.8436 33.2189C22.8091 33.2323 22.7647 33.2464 22.7103 33.2614C22.6577 33.2764 22.6006 33.2889 22.5389 33.2989C22.4791 33.3105 22.4192 33.3164 22.3594 33.3164ZM22.3947 33.154C22.4437 33.154 22.4945 33.1498 22.5471 33.1415C22.5997 33.1331 22.6495 33.1232 22.6967 33.1115C22.7438 33.0998 22.7828 33.089 22.8137 33.079V32.6718L22.4192 32.7067C22.3376 32.7134 22.2787 32.7351 22.2424 32.7717C22.208 32.8083 22.1907 32.8608 22.1907 32.9291C22.1907 32.9991 22.208 33.054 22.2424 33.094C22.2769 33.134 22.3276 33.154 22.3947 33.154Z" fill="white"/>
<path d="M23.8585 33.3189C23.7642 33.3189 23.6889 33.3055 23.6327 33.2789C23.5783 33.2522 23.5393 33.2064 23.5157 33.1415C23.4922 33.0748 23.4804 32.9816 23.4804 32.8616V32.2096H23.2872V32.0422H23.4804V31.6599H23.6898V32.0422H24.1169V32.2096H23.6898V32.8042C23.6898 32.8925 23.6934 32.9616 23.7007 33.0116C23.7098 33.0599 23.7279 33.094 23.7551 33.114C23.7823 33.134 23.8249 33.144 23.883 33.144C23.9011 33.144 23.9247 33.1431 23.9537 33.1415C23.9827 33.1398 24.0117 33.1381 24.0407 33.1365C24.0716 33.1331 24.0988 33.1306 24.1223 33.129L24.1359 33.2914C24.1105 33.2947 24.0806 33.298 24.0462 33.3014C24.0117 33.3064 23.9773 33.3105 23.9428 33.3139C23.9102 33.3172 23.882 33.3189 23.8585 33.3189Z" fill="white"/>
<path d="M24.366 33.2914V32.0422H24.5755V33.2914H24.366ZM24.366 31.7673V31.5425H24.5755V31.7673H24.366Z" fill="white"/>
<path d="M25.4887 33.3164C25.3363 33.3164 25.2176 33.2922 25.1323 33.2439C25.0489 33.1956 24.99 33.1223 24.9555 33.024C24.9229 32.9258 24.9065 32.8017 24.9065 32.6518C24.9065 32.5085 24.9247 32.3903 24.9609 32.297C24.999 32.2037 25.0607 32.1338 25.1459 32.0871C25.2312 32.0405 25.3454 32.0172 25.4887 32.0172C25.6338 32.0172 25.7489 32.0405 25.8341 32.0871C25.9194 32.1338 25.9801 32.2037 26.0164 32.297C26.0545 32.3903 26.0735 32.5085 26.0735 32.6518C26.0735 32.8017 26.0563 32.9258 26.0218 33.024C25.9892 33.1223 25.9303 33.1956 25.845 33.2439C25.7616 33.2922 25.6428 33.3164 25.4887 33.3164ZM25.4887 33.149C25.5939 33.149 25.6727 33.1323 25.7253 33.099C25.7779 33.064 25.8124 33.0099 25.8287 32.9366C25.8468 32.8633 25.8559 32.7684 25.8559 32.6518C25.8559 32.5369 25.845 32.4452 25.8233 32.377C25.8015 32.3087 25.7643 32.2595 25.7117 32.2295C25.6591 32.1996 25.5848 32.1846 25.4887 32.1846C25.3944 32.1846 25.32 32.1996 25.2656 32.2295C25.213 32.2595 25.1758 32.3087 25.1541 32.377C25.1323 32.4452 25.1214 32.5369 25.1214 32.6518C25.1214 32.7684 25.1296 32.8633 25.1459 32.9366C25.1641 33.0099 25.1994 33.064 25.252 33.099C25.3046 33.1323 25.3835 33.149 25.4887 33.149Z" fill="white"/>
<path d="M26.4062 33.2914V32.0422H26.6157V32.1296C26.6465 32.113 26.6846 32.0963 26.7299 32.0796C26.7771 32.063 26.8269 32.0488 26.8795 32.0372C26.9321 32.0238 26.9829 32.0172 27.0318 32.0172C27.1261 32.0172 27.2032 32.0288 27.2631 32.0522C27.3229 32.0738 27.3692 32.1096 27.4018 32.1596C27.4363 32.2079 27.4598 32.2712 27.4725 32.3495C27.487 32.4261 27.4943 32.5194 27.4943 32.6293V33.2914H27.2821V32.6368C27.2821 32.5285 27.2749 32.4419 27.2603 32.377C27.2477 32.312 27.2204 32.2654 27.1787 32.237C27.1388 32.2071 27.0772 32.1921 26.9938 32.1921C26.9484 32.1921 26.9013 32.1971 26.8523 32.2071C26.8052 32.2154 26.7607 32.227 26.719 32.242C26.6773 32.2554 26.6429 32.2687 26.6157 32.282V33.2914H26.4062Z" fill="white"/>
<path d="M28.1664 33.3164C28.0413 33.3164 27.9461 33.2839 27.8808 33.2189C27.8155 33.154 27.7829 33.059 27.7829 32.9341C27.7829 32.8525 27.7983 32.7859 27.8291 32.7342C27.8599 32.6826 27.9062 32.6435 27.9678 32.6168C28.0313 32.5885 28.1093 32.571 28.2018 32.5643L28.6207 32.5269V32.4194C28.6207 32.3345 28.5998 32.2745 28.5581 32.2395C28.5182 32.2046 28.4584 32.1871 28.3786 32.1871C28.3333 32.1871 28.2788 32.1887 28.2154 32.1921C28.1537 32.1954 28.0921 32.1996 28.0304 32.2046C27.9687 32.2096 27.9143 32.2146 27.8672 32.2196L27.8563 32.0721C27.8998 32.0638 27.9524 32.0555 28.0141 32.0472C28.0757 32.0388 28.1401 32.0322 28.2072 32.0272C28.2743 32.0205 28.336 32.0172 28.3922 32.0172C28.4956 32.0172 28.5799 32.0322 28.6452 32.0621C28.7105 32.0905 28.7576 32.1346 28.7866 32.1946C28.8175 32.2529 28.8329 32.3278 28.8329 32.4194V33.0515C28.8365 33.0882 28.8519 33.1148 28.8791 33.1315C28.9081 33.1481 28.9444 33.159 28.9879 33.164L28.9798 33.3164C28.9544 33.3164 28.9299 33.3155 28.9063 33.3139C28.8827 33.3122 28.8601 33.3089 28.8383 33.3039C28.8184 33.3005 28.7984 33.2964 28.7785 33.2914C28.7549 33.2831 28.7322 33.2731 28.7105 33.2614C28.6905 33.2497 28.6706 33.2356 28.6506 33.2189C28.6162 33.2323 28.5717 33.2464 28.5173 33.2614C28.4647 33.2764 28.4076 33.2889 28.3459 33.2989C28.2861 33.3105 28.2263 33.3164 28.1664 33.3164ZM28.2018 33.154C28.2507 33.154 28.3015 33.1498 28.3541 33.1415C28.4067 33.1331 28.4566 33.1232 28.5037 33.1115C28.5509 33.0998 28.5899 33.089 28.6207 33.079V32.6718L28.2263 32.7067C28.1446 32.7134 28.0857 32.7351 28.0494 32.7717C28.015 32.8083 27.9978 32.8608 27.9978 32.9291C27.9978 32.9991 28.015 33.054 28.0494 33.094C28.0839 33.134 28.1347 33.154 28.2018 33.154Z" fill="white"/>
<path d="M29.2517 33.2914V31.5H29.4611V33.2914H29.2517Z" fill="white"/>
</g>
<defs>
<linearGradient id="paint0_linear_3244_40035" x1="24.7283" y1="1.63971" x2="24.7283" y2="22.1285" gradientUnits="userSpaceOnUse">
<stop stop-color="#0F1922"/>
<stop offset="0.19" stop-color="#101D25"/>
<stop offset="0.38" stop-color="#12282D"/>
<stop offset="0.55" stop-color="#163B3B"/>
<stop offset="0.73" stop-color="#1B564F"/>
<stop offset="0.9" stop-color="#227968"/>
<stop offset="1" stop-color="#268F79"/>
</linearGradient>
<linearGradient id="paint1_linear_3244_40035" x1="11.5423" y1="14.3055" x2="11.5423" y2="34.7943" gradientUnits="userSpaceOnUse">
<stop stop-color="#0F1922"/>
<stop offset="0.19" stop-color="#101D25"/>
<stop offset="0.38" stop-color="#12282D"/>
<stop offset="0.55" stop-color="#163B3B"/>
<stop offset="0.73" stop-color="#1B564F"/>
<stop offset="0.9" stop-color="#227968"/>
<stop offset="1" stop-color="#268F79"/>
</linearGradient>
<linearGradient id="paint2_linear_3244_40035" x1="37.9143" y1="14.6788" x2="37.9143" y2="35.1676" gradientUnits="userSpaceOnUse">
<stop stop-color="#0F1922"/>
<stop offset="0.19" stop-color="#101D25"/>
<stop offset="0.38" stop-color="#12282D"/>
<stop offset="0.55" stop-color="#163B3B"/>
<stop offset="0.73" stop-color="#1B564F"/>
<stop offset="0.9" stop-color="#227968"/>
<stop offset="1" stop-color="#268F79"/>
</linearGradient>
<clipPath id="clip0_3244_40035">
<rect width="49" height="39" fill="white" transform="translate(0.5 0.5)"/>
</clipPath>
</defs>
</svg>
